<svg height="24" viewBox="0 0 24 24" width="24" xmlns="http://www.w3.org/2000/svg"><path d="m.05 24h4.75v-17.6h-4.75zm14.5-17.6a4.435 4.435 0 0 0 -.675.05 3.8 3.8 0 0 0 -.625.15q-.3.1-.5.175a3.449 3.449 0 0 0 -.5.25q-.3.175-.375.225t-.375.3l-.3.25v-1.4h-4.75v17.6h4.75v-11.3a2.263 2.263 0 0 1 .125-.55 1.99 1.99 0 0 1 .35-.675 2.167 2.167 0 0 1 .75-.525 2.82 2.82 0 0 1 1.225-.25 2.356 2.356 0 0 1 1.775.6 2.216 2.216 0 0 1 .575 1.6v11.1h5.05v-10.9a7.6 7.6 0 0 0 -.55-3.025 5.733 5.733 0 0 0 -1.275-1.95 5.971 5.971 0 0 0 -1.7-1.1 6.8 6.8 0 0 0 -1.65-.525 9.034 9.034 0 0 0 -1.325-.1zm-13.85-5.7a2.314 2.314 0 0 0 -.7 1.7 2.314 2.314 0 0 0 .7 1.7 2.314 2.314 0 0 0 1.7.7 2.314 2.314 0 0 0 1.7-.7 2.314 2.314 0 0 0 .7-1.7 2.314 2.314 0 0 0 -.7-1.7 2.314 2.314 0 0 0 -1.7-.7 2.314 2.314 0 0 0 -1.7.7zm23.3 21.7" fill="#00a19a"/></svg>