<svg height="40.289" viewBox="0 0 215 40.289" width="215" xmlns="http://www.w3.org/2000/svg"><g fill="#fff"><path d="m0 30.459 7.071-3.259c1.088 2.681 3.186 5.206 6.915 5.206 2.6 0 4.973-1.282 4.973-4.312 0-2.331-1.282-3.419-5.012-4.9l-2.447-.933c-5.245-2.1-10.062-4.973-10.062-11.344-.001-6.76 5.672-10.917 12.471-10.917a13.8 13.8 0 0 1 12.937 8.353l-6.446 3.647c-1.713-2.987-3.694-4.23-6.142-4.23-2.37 0-4.2 1.088-4.2 3.3 0 1.709 1.01 3.03 5.089 4.7l2.642 1.049c7.071 2.758 10.218 5.983 10.218 11.383 0 8.159-7.3 12.083-13.909 12.083-6.911.003-12.622-4.076-14.098-9.826z"/><path d="m80.7 41.919c0-10.019 7.187-14.919 13.714-14.919 5.089 0 8.081 2.758 8.508 3.807h.155v-3.263h8.547v28.711h-8.547v-3.264h-.155c-.422 1.049-3.422 3.809-8.508 3.809-6.527 0-13.714-4.9-13.714-14.881zm22.572 0a7.056 7.056 0 1 0 -14.1 0 7.056 7.056 0 1 0 14.1 0z" transform="translate(-49.347 -16.51)"/><path d="m203.439 39.355v16.9h-8.547v-15.385c0-3.574-1.826-6.255-5.361-6.255-3.458 0-5.284 2.642-5.284 6.255v15.385h-8.547v-28.711h8.547v3.656c1.593-2.448 4.39-4.2 8.469-4.2 5.789 0 10.723 3.574 10.723 12.355z" transform="translate(-107.439 -16.51)"/><path d="m257.6 48.579 6.8-1.826a4.151 4.151 0 0 0 4.157 3.3c1.554 0 2.992-.777 2.992-2.37 0-.932-.544-1.826-2.448-2.448l-3.847-1.435c-4.74-1.709-6.8-4.817-6.8-8.392 0-5.361 4.818-8.508 10.451-8.508 5.4 0 9.324 3.03 10.334 7.692l-6.721 1.671c-.7-2.214-2.137-2.72-3.3-2.72-1.671 0-2.486 1.01-2.486 1.981 0 .932.544 1.826 2.486 2.448l3.574 1.321c3.108 1.049 7.187 3.186 7.187 8.392 0 5.789-4.9 9.052-11.306 9.052-5.828 0-10.179-2.68-11.073-8.158z" transform="translate(-157.521 -16.449)"/><path d="m351.033 45.221h-20.433c1.165 3.108 4.04 4.623 7.848 4.623a10.978 10.978 0 0 0 6.915-2.214l3.846 4.04c-2.37 2.992-6.449 5.128-11.694 5.128-7.964 0-15.113-5.4-15.113-14.841-.002-9.712 7.224-14.957 14.645-14.957 7.265 0 15.812 5.089 13.986 18.221zm-20.591-6.138h13.093c-.622-3.3-3.535-4.9-6.41-4.9a6.58 6.58 0 0 0 -6.683 4.9z" transform="translate(-197.145 -16.51)"/></g><path d="m506.989 31.889a14.837 14.837 0 0 0 -11.189-5.089v29.837a14.837 14.837 0 0 0 11.189-5.089 14.817 14.817 0 0 1 0-19.658z" fill="#00a19a" transform="translate(-303.178 -16.388)"/><path d="m524.6 31.889a14.817 14.817 0 0 1 0 19.658 14.837 14.837 0 0 0 11.189 5.089v-29.836a14.9 14.9 0 0 0 -11.189 5.089z" fill="#fc0" transform="translate(-320.789 -16.388)"/><path d="m518.73 39.9a14.817 14.817 0 0 0 0 19.658 14.817 14.817 0 0 0 0-19.658z" fill="#3f1f71" transform="translate(-314.919 -24.399)"/><path d="m428.476 51.709a15.126 15.126 0 0 1 -3.147-5.75 7.411 7.411 0 0 1 -6.022 3.147c-3.691 0-6.838-2.758-6.838-7.226a6.771 6.771 0 0 1 6.838-7.11 7.465 7.465 0 0 1 5.983 3.108 14.887 14.887 0 0 1 3.186-5.866c.272-.311.583-.622.894-.932a13.839 13.839 0 0 0 -10.063-4.08c-7.692 0-15.307 5.128-15.307 14.841 0 9.829 7.615 14.958 15.307 14.958a14 14 0 0 0 10.1-4.157z" fill="#fff" transform="translate(-247.043 -16.51)"/></svg>