<svg height="24" viewBox="0 0 24 24" width="24" xmlns="http://www.w3.org/2000/svg"><path d="m23.344.375a10.014 10.014 0 0 1 -3.144 1.172 4.926 4.926 0 0 0 -7.078-.094 4.735 4.735 0 0 0 -1.453 3.469 4.623 4.623 0 0 0 .141 1.125 13.625 13.625 0 0 1 -5.648-1.5 13.572 13.572 0 0 1 -4.474-3.656 4.594 4.594 0 0 0 -.7 2.484 4.617 4.617 0 0 0 2.2 4.078 4.259 4.259 0 0 1 -2.2-.609v.094a4.78 4.78 0 0 0 1.1 3.094 4.869 4.869 0 0 0 2.836 1.734 6.248 6.248 0 0 1 -1.313.141 4.769 4.769 0 0 1 -.937-.094 5.169 5.169 0 0 0 1.756 2.46 4.51 4.51 0 0 0 2.836.961 9.567 9.567 0 0 1 -6.094 2.109q-.563.001-1.172-.043a13.807 13.807 0 0 0 7.547 2.2 14.042 14.042 0 0 0 6-1.266 12.632 12.632 0 0 0 4.43-3.3 15.591 15.591 0 0 0 2.648-4.5 13.8 13.8 0 0 0 .938-4.945v-.614a10.062 10.062 0 0 0 2.437-2.575 9.956 9.956 0 0 1 -2.812.8 4.885 4.885 0 0 0 2.156-2.725zm.609 19.875" fill="#00a19a" transform="translate(0 4)"/></svg>